<svg width="19" height="20" viewBox="0 0 19 20" fill="none" xmlns="http://www.w3.org/2000/svg">
<path fill-rule="evenodd" clip-rule="evenodd" d="M9.8126 0.8125C14.8859 0.8125 19.0002 4.92682 19.0002 10.0001C19.0002 15.0734 14.8859 19.1877 9.8126 19.1877C4.73932 19.1877 0.625 15.0734 0.625 10.0001C0.625 4.92682 4.73932 0.8125 9.8126 0.8125ZM7.90468 12.9843L5.65533 10.7331C5.27212 10.3497 5.27204 9.72437 5.65533 9.34101C6.0387 8.95772 6.66676 8.96012 7.04734 9.34101L8.63312 10.928L12.578 6.98315C12.9614 6.59978 13.5867 6.59978 13.97 6.98315C14.3534 7.36644 14.3528 7.99233 13.97 8.37516L9.328 13.0172C8.94518 13.4 8.31928 13.4005 7.93599 13.0172C7.92522 13.0064 7.91483 12.9955 7.90468 12.9843Z" fill="#00BA00"/>
</svg>
