<svg width="17" height="16" viewBox="0 0 17 16" fill="none" xmlns="http://www.w3.org/2000/svg">
<path d="M9.34486 2.80593C9.14491 2.61547 8.82842 2.62316 8.63796 2.82312C8.4475 3.02307 8.4552 3.33955 8.65515 3.53001L12.8228 7.49976H3C2.72386 7.49976 2.5 7.72361 2.5 7.99976C2.5 8.2759 2.72386 8.49976 3 8.49976H12.8228L8.65515 12.4696C8.4552 12.66 8.4475 12.9765 8.63796 13.1765C8.82842 13.3764 9.14491 13.3841 9.34486 13.1936L14.2908 8.48251C14.4034 8.37524 14.4701 8.23842 14.4907 8.09618C14.4968 8.06498 14.5 8.03274 14.5 7.99976C14.5 7.96671 14.4968 7.93441 14.4907 7.90316C14.47 7.761 14.4034 7.62427 14.2908 7.51706L9.34486 2.80593Z" fill="black"/>
</svg>
