<svg width="20" height="14" viewBox="0 0 20 14" fill="none" xmlns="http://www.w3.org/2000/svg">
<mask id="mask0_2198_588" style="mask-type:luminance" maskUnits="userSpaceOnUse" x="0" y="0" width="20" height="14">
<path d="M20 0.503418H0V13.4966H20V0.503418Z" fill="white"/>
</mask>
<g mask="url(#mask0_2198_588)">
<path d="M18.0183 9.47308C18.0183 12.3335 14.5263 13.496 10.1876 13.496C5.84891 13.496 2.30658 12.3335 2.30658 9.47308C2.30658 6.61266 5.82603 4.29688 10.1601 4.29688C14.4988 4.29688 18.0183 6.61724 18.0183 9.47308Z" fill="#4BAF74"/>
</g>
<mask id="mask1_2198_588" style="mask-type:luminance" maskUnits="userSpaceOnUse" x="0" y="0" width="20" height="14">
<path d="M20 0.503418H0V13.4966H20V0.503418Z" fill="white"/>
</mask>
<g mask="url(#mask1_2198_588)">
<path d="M17.2175 3.23568C17.2175 1.72996 15.9863 0.503418 14.4715 0.503418C13.6156 0.503418 12.8559 0.892433 12.3525 1.50113C11.666 1.3501 10.9337 1.26314 10.1785 1.26314C9.41882 1.26314 8.69114 1.34552 8.00464 1.50113C7.49663 0.892433 6.73232 0.503418 5.88564 0.503418C4.37077 0.503418 3.13965 1.72539 3.13965 3.23568C3.13965 3.72996 3.27237 4.1922 3.5012 4.59037C3.28153 5.05719 3.16711 5.55147 3.16711 6.06863C3.16711 8.7231 6.31127 10.8741 10.1831 10.8741C14.055 10.8741 17.1991 8.7231 17.1991 6.06863C17.1991 5.55147 17.0802 5.05719 16.865 4.59037C17.0847 4.1922 17.2175 3.72996 17.2175 3.23568Z" fill="#32DA6D"/>
</g>
<mask id="mask2_2198_588" style="mask-type:luminance" maskUnits="userSpaceOnUse" x="0" y="0" width="20" height="14">
<path d="M20 0.503418H0V13.4966H20V0.503418Z" fill="white"/>
</mask>
<g mask="url(#mask2_2198_588)">
<path d="M5.66126 4.75063C6.58575 4.75063 7.3409 4.00463 7.3409 3.08015C7.3409 2.16024 6.59032 1.40967 5.66126 1.40967C4.73678 1.40967 3.98163 2.15566 3.98163 3.08015C3.98621 4.00463 4.73678 4.75063 5.66126 4.75063Z" fill="#F1F1E8"/>
</g>
<mask id="mask3_2198_588" style="mask-type:luminance" maskUnits="userSpaceOnUse" x="0" y="0" width="20" height="14">
<path d="M20 0.503418H0V13.4966H20V0.503418Z" fill="white"/>
</mask>
<g mask="url(#mask3_2198_588)">
<path d="M14.6134 4.75063C15.5378 4.75063 16.293 4.00463 16.293 3.08015C16.293 2.16024 15.5424 1.40967 14.6134 1.40967C13.6843 1.40967 12.9337 2.15566 12.9337 3.08015C12.9337 4.00463 13.6843 4.75063 14.6134 4.75063Z" fill="#F1F1E8"/>
</g>
<mask id="mask4_2198_588" style="mask-type:luminance" maskUnits="userSpaceOnUse" x="0" y="0" width="20" height="14">
<path d="M20 0.503418H0V13.4966H20V0.503418Z" fill="white"/>
</mask>
<g mask="url(#mask4_2198_588)">
<path d="M4.76874 13.2999C5.1303 13.2999 5.41405 12.9887 5.37286 12.6317C5.22641 11.3777 4.5994 8.66376 1.84883 7.0299C-1.8125 4.85598 1.08453 12.3388 1.08453 12.3388L0.324804 12.7736C0.0685109 12.9201 0.17835 13.2999 0.46668 13.2999H4.76874Z" fill="#32DA6D"/>
</g>
<mask id="mask5_2198_588" style="mask-type:luminance" maskUnits="userSpaceOnUse" x="0" y="0" width="20" height="14">
<path d="M20 0.503418H0V13.4966H20V0.503418Z" fill="white"/>
</mask>
<g mask="url(#mask5_2198_588)">
<path d="M15.6933 13.2999C15.3684 13.2999 15.1121 12.9887 15.1487 12.6317C15.2768 11.3823 15.8443 8.66376 18.3249 7.0299C21.6338 4.85598 19.016 12.3388 19.016 12.3388L19.7025 12.7736C19.9313 12.9201 19.8352 13.2999 19.5743 13.2999H15.6933Z" fill="#32DA6D"/>
</g>
<mask id="mask6_2198_588" style="mask-type:luminance" maskUnits="userSpaceOnUse" x="0" y="0" width="20" height="14">
<path d="M20 0.503418H0V13.4966H20V0.503418Z" fill="white"/>
</mask>
<g mask="url(#mask6_2198_588)">
<path d="M5.66131 3.38683C5.83065 3.38683 5.96795 3.24953 5.96795 3.08477C5.96795 2.91544 5.83065 2.78271 5.66131 2.78271C5.49197 2.78271 5.35468 2.92001 5.35468 3.08477C5.35925 3.24953 5.49655 3.38683 5.66131 3.38683Z" fill="#0D0D0D"/>
</g>
<mask id="mask7_2198_588" style="mask-type:luminance" maskUnits="userSpaceOnUse" x="0" y="0" width="20" height="14">
<path d="M20 0.503418H0V13.4966H20V0.503418Z" fill="white"/>
</mask>
<g mask="url(#mask7_2198_588)">
<path d="M14.6131 3.38683C14.7824 3.38683 14.9197 3.24953 14.9197 3.08477C14.9197 2.91544 14.7824 2.78271 14.6131 2.78271C14.4438 2.78271 14.3065 2.92001 14.3065 3.08477C14.3065 3.24953 14.4438 3.38683 14.6131 3.38683Z" fill="#0D0D0D"/>
</g>
</svg>
