<svg width="20" height="20" viewBox="0 0 20 20" fill="none" xmlns="http://www.w3.org/2000/svg">
<path d="M17.2065 2.22852L10.9604 6.86756L12.1155 4.13059L17.2065 2.22852Z" fill="#E2761B" stroke="#E2761B" stroke-linecap="round" stroke-linejoin="round"/>
<path d="M2.78719 2.22852L8.98304 6.9115L7.88449 4.13059L2.78719 2.22852ZM14.9592 12.9818L13.2957 15.5305L16.855 16.5097L17.8782 13.0383L14.9592 12.9818ZM2.12805 13.0383L3.145 16.5097L6.70432 15.5305L5.04079 12.9818L2.12805 13.0383Z" fill="#E4761B" stroke="#E4761B" stroke-linecap="round" stroke-linejoin="round"/>
<path d="M6.50344 8.67528L5.5116 10.1756L9.04581 10.3325L8.92026 6.53466L6.50344 8.67528ZM13.4903 8.67528L11.042 6.49072L10.9604 10.3325L14.4884 10.1756L13.4903 8.67528ZM6.70431 15.5303L8.8261 14.4945L6.99308 13.0632L6.70431 15.5303ZM11.1676 14.4945L13.2957 15.5303L13.0006 13.0632L11.1676 14.4945Z" fill="#E4761B" stroke="#E4761B" stroke-linecap="round" stroke-linejoin="round"/>
<path d="M13.2957 15.5304L11.1676 14.4946L11.3371 15.8819L11.3183 16.4658L13.2957 15.5304ZM6.70435 15.5304L8.68175 16.4658L8.66919 15.8819L8.82613 14.4946L6.70435 15.5304Z" fill="#D7C1B3" stroke="#D7C1B3" stroke-linecap="round" stroke-linejoin="round"/>
<path d="M8.71312 12.147L6.94287 11.6259L8.19209 11.0547L8.71312 12.147ZM11.2806 12.147L11.8016 11.0547L13.0571 11.6259L11.2806 12.147Z" fill="#233447" stroke="#233447" stroke-linecap="round" stroke-linejoin="round"/>
<path d="M6.70436 15.5305L7.00568 12.9818L5.04083 13.0383L6.70436 15.5305ZM12.9944 12.9818L13.2957 15.5305L14.9592 13.0383L12.9944 12.9818ZM14.4884 10.1758L10.9605 10.3327L11.2869 12.1469L11.8079 11.0546L13.0634 11.6259L14.4884 10.1758ZM6.9429 11.6259L8.1984 11.0546L8.71315 12.1469L9.04586 10.3327L5.51164 10.1758L6.9429 11.6259Z" fill="#CD6116" stroke="#CD6116" stroke-linecap="round" stroke-linejoin="round"/>
<path d="M5.5116 10.1758L6.99308 13.0634L6.94286 11.6259L5.5116 10.1758ZM13.0634 11.6259L13.0006 13.0634L14.4884 10.1758L13.0634 11.6259ZM9.04581 10.3327L8.7131 12.1469L9.12742 14.2875L9.22158 11.4689L9.04581 10.3327ZM10.9604 10.3327L10.7909 11.4627L10.8663 14.2875L11.2869 12.1469L10.9604 10.3327Z" fill="#E4751F" stroke="#E4751F" stroke-linecap="round" stroke-linejoin="round"/>
<path d="M11.2869 12.147L10.8663 14.2876L11.1676 14.4948L13.0006 13.0635L13.0634 11.626L11.2869 12.147ZM6.94287 11.626L6.99309 13.0635L8.82611 14.4948L9.12743 14.2876L8.71312 12.147L6.94287 11.626Z" fill="#F6851B" stroke="#F6851B" stroke-linecap="round" stroke-linejoin="round"/>
<path d="M11.3183 16.4656L11.3371 15.8818L11.1802 15.7437H8.81357L8.66919 15.8818L8.68175 16.4656L6.70435 15.5303L7.39487 16.0952L8.79474 17.0683H11.199L12.6052 16.0952L13.2957 15.5303L11.3183 16.4656Z" fill="#C0AD9E" stroke="#C0AD9E" stroke-linecap="round" stroke-linejoin="round"/>
<path d="M11.1676 14.4948L10.8663 14.2876H9.12744L8.82613 14.4948L8.66919 15.8821L8.81357 15.744H11.1802L11.3371 15.8821L11.1676 14.4948Z" fill="#161616" stroke="#161616" stroke-linecap="round" stroke-linejoin="round"/>
<path d="M17.4702 7.16888L18.0037 4.60767L17.2065 2.22852L11.1676 6.71062L13.4903 8.67547L16.7734 9.63592L17.5015 8.78847L17.1877 8.56248L17.6899 8.10422L17.3007 7.8029L17.8029 7.41998L17.4702 7.16888ZM1.99622 4.60767L2.5298 7.16888L2.19082 7.41998L2.69301 7.8029L2.31009 8.10422L2.81229 8.56248L2.49841 8.78847L3.22032 9.63592L6.50343 8.67547L8.8261 6.71062L2.78718 2.22852L1.99622 4.60767Z" fill="#763D16" stroke="#763D16" stroke-linecap="round" stroke-linejoin="round"/>
<path d="M16.7734 9.63571L13.4903 8.67525L14.4884 10.1756L13.0006 13.0632L14.9592 13.0381H17.8782L16.7734 9.63571ZM6.50344 8.67525L3.22033 9.63571L2.12805 13.0381H5.04079L6.99309 13.0632L5.5116 10.1756L6.50344 8.67525ZM10.9604 10.3325L11.1676 6.71041L12.1218 4.13037H7.88449L8.82611 6.71041L9.04582 10.3325L9.12115 11.475L9.12742 14.2873H10.8663L10.8788 11.475L10.9604 10.3325Z" fill="#F6851B" stroke="#F6851B" stroke-linecap="round" stroke-linejoin="round"/>
</svg>
